<svg xmlns="http://www.w3.org/2000/svg" version="1.1" xmlns:xlink="http://www.w3.org/1999/xlink" xmlns:svgjs="http://svgjs.dev/svgjs" width="1024" height="1063.274"><svg viewBox="0 0 1024 1063.274" xmlns="http://www.w3.org/2000/svg"><path d="M313.09 817.47L163.568 662.465 313.09 507.46l48.89 47.213-104.213 107.792L361.98 770.257zm397.367.408l-48.074-48.074L769.767 662.42 662.383 555.036l48.074-48.074L865.87 662.374zm-253.87-5.392l-56.82-37.245 172.178-262.795 56.818 37.245zM0 21.333h1024v1024H0zm956.035 67.965H67.965v888.07h888.07zM1024 352.094H0V21.334h1024zM67.965 284.13h888.07V89.296H67.966zm183.504-63.434h-86.09V152.73h86.09zm176.707 0h-90.62V152.73h90.62zm172.177 0h-86.088V152.73h86.088z"></path></svg><style>@media (prefers-color-scheme: light) { :root { filter: none; } }
@media (prefers-color-scheme: dark) { :root { filter: none; } }
</style></svg>